<svg xmlns="http://www.w3.org/2000/svg" viewBox="0 0 24 24" width="24" height="24" aria-label="Railway">
  <title>Railway</title>
  <defs>
    <linearGradient id="railway-bg" x1="2" y1="2" x2="22" y2="22" gradientUnits="userSpaceOnUse">
      <stop offset="0" stop-color="#22103F"/>
      <stop offset="0.52" stop-color="#5F39FF"/>
      <stop offset="1" stop-color="#B54CFF"/>
    </linearGradient>
  </defs>
  <rect x="1" y="1" width="22" height="22" rx="6" fill="url(#railway-bg)"/>
  <path fill="#FFFFFF" fill-rule="evenodd" d="M2.102 10.27c-.046.4-.076.804-.09 1.208h14.76c-.066-.119-.129-.234-.191-.346-2.523-4.026-3.88-3.677-5.82-3.78-.648-.032-1.087-.046-3.662-.046-1.379 0-2.877.005-4.337.01-.188.63-.37 1.24-.46 1.737h7.565v1.217H2.102zm14.786 2.426H2.02c.016.325.041.645.076.961h13.726c.612 0 .954-.429 1.066-.96zm-14.014 4.28S5.15 23.878 11.724 24c3.93 0 7.308-2.883 8.843-7.024H2.874z"/>
  <path fill="#FFFFFF" fill-rule="evenodd" d="M11.724 0C8.092 0 4.93 2.465 3.261 6.108c1.305-.003 3.847-.005 3.847-.005h.001v-.001c3.005 0 3.117.016 3.704.046l.364.017c1.265.052 2.821.22 4.046 1.364.664.62 1.625 1.99 2.198 2.965.53.902.682 1.94.321 2.934-.33.913-1.043 1.458-1.906 1.458H2.338c.045.298.112.593.201.885h18.445A11.96 11.96 0 0 0 21.478 12C21.478 5.375 17.124 0 11.724 0z"/>
</svg>
